<svg width="1024" height="768" xmlns="http://www.w3.org/2000/svg" version="1.1">

 <g>
  <title>Layer 1</title>
  <g id="svg_1" fill-rule="evenodd" fill="#FFFFFF00">
   <g id="svg_2">
    <rect id="svg_3" height="768" width="1024" y="0" x="0"/>
    <path id="svg_4" fill="#FFFFFF00" d="m285.20391,455.10587c4.66866,-3.1818 14.2163,-14.57186 19.21853,-17.20417c11.12284,-5.85297 60.67455,-17.35909 62.28568,-18.03902c2.45405,-1.03516 18.39503,-4.65268 27.68252,-6.93808c21.80967,-5.36731 99.96574,-40.03553 120.56569,-48.9246c2.62984,6.92005 24.33986,37.46843 20.61518,40.5989c-12.26198,10.30721 -34.24052,23.14128 -48.44442,30.52757c-11.48824,5.97369 -23.6561,10.91727 -35.94022,14.95384c-13.94645,4.5833 -23.51907,9.49735 -37.41846,14.18611c-13.67517,4.61244 2.66721,19.03949 9.69026,22.02009c7.87706,3.34416 20.07814,5.04122 28.12683,7.93995c-14.17068,22.02425 -26.0714,48.7553 -28.4521,75.13806c-0.57302,6.34974 -5.41331,12.17079 -13.28622,10.26976c-4.06241,-0.98105 -41.54593,-5.97369 -47.65824,-7.36686c-40.80265,-9.30536 -114.05181,-58.0343 -95.18894,-108.001c4.32124,1.9954 14.18718,-6.42278 18.20391,-9.16055z"/>
    <g id="svg_5" fill="#1d1d1d">
     <path id="svg_6" d="m308.0313,189.99996c3.04808,-0.25717 10.92933,-6.34619 6.79413,-9.42553c-4.17259,-3.10747 -7.17082,7.30522 -6.79413,9.42553m-158.78593,23.35266c0.79666,-0.14028 0.44886,-4.50092 -0.80558,-5.05808c-3.9595,-1.75749 -4.29392,4.84899 -4.39053,6.61706c-0.12039,2.23128 -0.39982,8.51616 4.41431,6.79308c2.73331,-0.978 1.03744,-6.67926 0.7818,-8.35206m233.7551,20.37024c-0.10773,3.89219 7.75507,11.37642 10.68692,6.8867c2.46547,-3.77158 -10.4851,-14.63407 -10.68692,-6.8867m-278.00041,-87.77842c2.27825,5.81112 13.54489,-2.10894 13.96358,-6.37166c0.85977,-8.72987 -14.0812,0.56317 -13.96358,6.37166m93.99931,25.05552c5.24689,-0.43121 12.15113,-7.10185 17.21068,-9.59405c3.42408,-1.68626 12.74049,-3.69627 13.75377,-7.52479c0.882,-3.32706 -14.92568,3.79408 -16.27534,4.42643c-6.20137,2.90549 -11.79286,6.21739 -14.68911,12.69241m393.8973,-46c4.18206,-3.2336 9.26585,-5.31967 14.62743,-5.18306c2.6773,0.06831 8.26222,1.74317 8.4716,-2.88661c0.34199,-7.52868 -23.30143,1.65301 -26.99633,3.12978c1.29957,1.64754 2.59913,3.29372 3.8973,4.93989m-260.8973,293.38687c-3.06815,-5.09497 -8.58654,-8.0405 -12.73605,-12.38687c1.52048,7.13687 -1.90812,13.48464 -4.26395,20c5.66715,-2.53771 11.33286,-5.07542 17,-7.61313m532.80514,108.61313c1.6914,-5.65851 3.38425,-11.28592 5.36193,-16.85822c2.21138,-6.23934 3.31123,-6.77919 -1.98352,-11.14178c-4.39354,8.30546 -8.78855,16.61091 -13.18355,24.91778c3.12865,1.32984 6.39313,2.62434 9.80514,3.08222m-454.80514,-409.63523c-5.81834,-6.5582 -33.08655,-6.96996 -29.71189,7.50444c1.17714,5.05432 7.88109,-0.31495 12.08086,-1.49298c4.16813,-1.16984 15.96983,-1.32527 17.63103,-6.01146m-1,92.85015c-0.70542,-1.67374 -2.11349,-7.71458 -4.20347,-8.19067c-2.03604,-0.46396 -10.06952,5.87225 -11.57995,6.83927c-7.53278,4.827 -14.87606,10.0195 -22.21658,15.13648c2.81061,0 5.36257,-1.00074 8.15659,-1.02232c3.31962,-0.02832 5.70145,1.33522 8.93809,0.55702c6.95461,-1.66969 15.02682,-9.37618 20.90532,-13.31978m7.53635,-149.64466c0.65361,-2.99975 34.74529,6.00511 38.84265,7.65399c2.23211,0.89683 13.74968,6.88367 11.2744,-2.13947c-1.40842,-5.13921 -14.71815,-9.05687 -18.98277,-10.46537c-10.84288,-3.57889 -22.27471,-6.1246 -33.8204,-5.53421c-2.24195,0.11386 -19.22032,1.09363 -12.13042,7.91826c2.44295,2.35032 11.19991,1.60952 14.81654,2.5668m7.46365,412.14267c6.35157,3.12492 12.83652,5.51554 19.47548,7.95958c2.94958,1.08502 7.54377,3.92773 10.79725,3.21397c2.66493,-0.58635 3.51887,-4.64423 4.91871,-7.3609c5.11811,-9.93783 11.23041,-17.95495 18.80856,-26.1488c-3.51887,-2.56597 -21.38136,8.75417 -25.80092,10.42555c-4.42505,1.67274 -8.59984,3.35782 -12.93002,5.35662c-4.07716,1.88235 -12.12284,3.56468 -15.26906,6.55398m112.46383,-84.71293c9.2565,-4.18869 18.03086,-11.61699 25.6228,-18.26751c8.71739,-7.6369 16.53164,-15.6399 22.91337,-25.52173c-3.84043,0.19617 -12.31884,12.54812 -12.41332,-0.89935c-0.04863,-6.86051 9.35237,-13.6174 12.27021,-19.98057c-7.25847,-4.09751 -13.91115,20.38811 -22.2395,14.4532c-8.02267,-5.71938 4.63659,-25.3822 7.07507,-31.58649c-4.70606,-3.13047 -31.51822,31.91529 -35.39895,36.39962c-2.42736,2.8072 -8.16717,6.54414 -9.53717,9.81829c-0.8156,1.94929 -0.93232,8.13424 -0.53771,9.92742c0.82116,3.74938 4.97978,8.23923 6.83191,11.73027c2.344,4.4194 4.38509,9.01287 5.41329,13.92685m382.69178,126.35206c-8.00505,-11.29932 0.26351,-16.22677 6.77295,-25.60525c5.20587,-7.50195 9.99544,-15.77114 13.29502,-24.14835c8.25314,-20.9534 15.70031,-40.43328 19.77642,-62.59846c-5.60956,2.56066 -9.11658,12.30614 -11.92276,17.44132c-3.77335,6.90368 -7.09255,14.14943 -11.2864,20.83846c-7.84805,12.51664 -15.55313,25.86838 -25.53596,36.71761c-4.52325,4.91637 -8.35266,10.44762 -13.57115,14.87789c-2.38427,2.02333 -6.94536,3.68519 -8.70168,6.21539c-1.65819,2.38894 0.19624,3.91647 -0.43312,6.77073c-0.64618,2.92766 -3.60795,6.04921 -4.87928,8.86885c-1.66941,3.70319 -3.22388,7.4147 -5.08672,11.03619c-2.03245,3.94833 -2.58752,6.0132 -3.13558,9.87289c-0.59852,4.21977 1.23769,4.65739 -2.44735,8.54616c6.67764,2.94428 13.35529,5.88856 20.03293,8.83284c2.25252,0.99435 4.50643,1.98732 6.76035,2.98167c0.47517,-0.89049 0.95034,-1.78097 1.42551,-2.67146c1.83481,-1.78235 3.52245,-6.17799 4.57231,-8.53231c4.38729,-9.82442 9.34226,-19.68761 14.36451,-29.44417m-644.83512,-47.43254c-18.96053,49.91886 47.66847,91.95003 88.68282,101.24639c5.68147,1.28665 11.22519,2.97261 16.88023,4.35493c6.16572,1.50711 11.64126,1.20763 17.79584,1.83848c4.89668,0.50052 7.23022,4.28422 11.84442,5.32686c7.71028,1.74142 7.23856,-4.05269 7.79098,-10.26135c2.3405,-26.32511 15.77539,-51.72406 29.99509,-73.69007c-6.4955,-2.32375 -12.93117,-4.85962 -19.34319,-7.40381c-5.48667,-2.17816 -13.88852,-8.29948 -19.78707,-8.62391c-4.36234,-0.23848 -11.00951,3.487 -15.24662,5.12166c-7.05628,2.72305 -14.13342,5.04263 -21.48748,6.89913c-12.8602,3.24713 -27.17035,7.67278 -40.47722,8.00831c-3.83636,0.09705 -14.36024,1.88423 -17.12097,-0.48665c-5.26403,-4.52132 2.04272,-8.28977 6.44958,-9.90364c26.26449,-9.61802 54.15146,-13.70675 80.49108,-23.5674c13.55318,-5.07591 26.9672,-10.74245 40.60664,-15.74211c11.75675,-4.30918 24.07149,-8.12477 35.43305,-13.42529c15.0045,-6.99757 30.0744,-15.71576 43.0668,-25.98681c2.60071,-2.05477 8.0498,-5.1078 9.83231,-8.08596c1.56961,-2.62184 1.37341,-0.00693 1.0478,-3.18613c-0.23378,-2.28354 -3.0279,-5.37816 -4.17727,-7.53553c-4.28164,-8.04297 -8.15139,-16.30501 -11.4047,-24.81662c-20.72634,8.89012 -40.44383,20.98993 -60.86543,30.4901c-20.55378,9.56256 -43.73889,16.30918 -65.72731,21.68872c-9.3592,2.29047 -20.11825,3.01421 -28.70099,7.53969c-3.64711,1.92166 -7.25248,4.14558 -11.15841,5.25753c-1.15355,2.21283 -2.28901,2.6468 -3.40777,1.30052c-0.70132,-0.78613 -1.60718,-1.11889 -2.71898,-0.99688c-2.3892,0.40486 -4.82571,1.53345 -7.06045,2.4c-11.30869,4.38405 -22.13731,9.87452 -32.8741,15.4759c-5.0887,2.65373 -10.3082,5.26724 -15.17843,8.29809c-2.61045,1.62496 -4.94955,3.26378 -7.0855,5.49462c-2.56035,2.67453 -1.95088,4.87348 -6.09475,2.97123m426.65954,-296.38946c4.79147,0.07759 9.15857,-2.51752 14.15528,-2.37343c7.85772,0.22723 14.07761,6.31945 18.63747,12.19413c9.02405,11.62468 6.72331,25.64772 2.18979,38.65654c-2.16898,6.21692 -5.14649,12.18444 -8.86732,17.62683c-3.2937,4.81752 -9.18214,9.37456 -11.48149,14.73937c-3.79157,8.84667 3.85814,5.08493 8.54143,3.19505c5.88844,-2.37758 11.40937,-5.33294 16.40747,-9.31359c22.27649,-17.74183 39.22343,-42.40304 44.89969,-70.72485c2.76948,-13.81798 2.55591,-29.97198 -7.07001,-41.25027c-8.79937,-10.31257 -23.9906,-13.6822 -36.97679,-11.77015c-14.03739,2.06861 -26.7587,8.01396 -38.18887,15.66767c-3.32004,2.22379 -6.35996,4.65126 -9.47753,7.1383c-4.08973,3.26295 -6.54024,3.34885 -5.51677,8.46288c0.75998,3.80191 2.8305,7.741 4.16462,11.38913c2.49767,6.83347 1.58652,8.60142 8.58303,6.36239m15.27636,117.80128l-0.96944,1.65624c6.6836,0.31877 12.9088,-5.57715 18.60358,-8.45581c7.39822,-3.74073 13.96688,-8.84387 20.44968,-13.99691c11.43248,-9.08919 23.01454,-19.33151 31.52347,-31.26333c19.07722,-26.74784 36.4053,-60.65837 31.1994,-94.57028c-5.6103,-36.54942 -37.57833,-50.61841 -71.64174,-45.77998c-15.35041,2.18013 -29.05554,9.03375 -42.79391,15.99132c-6.92459,3.50789 -12.76894,8.05803 -19.11324,12.46264c-3.29194,2.28685 -6.29583,2.58345 -6.51049,6.58198c-0.16204,3.01309 5.04664,9.82652 6.4551,12.55688c17.24913,-17.59627 35.83748,-32.15312 61.88637,-33.05261c30.99028,-1.06997 49.3155,28.31398 49.17977,56.45195c-0.13295,27.59466 -12.03492,54.13876 -31.00828,73.97061c-8.62249,9.01296 -16.84335,16.24496 -27.43104,22.82277c-5.27791,3.27921 -9.17091,6.22301 -15.07204,8.40037c-4.17414,1.5412 -3.73928,0.72902 -4.80428,4.5931c-0.90435,3.27921 0.01939,8.22573 0.04709,11.63106m-168.39109,374.90994c-0.40317,4.97282 -1.41386,9.86832 -2.53856,14.71883c-0.40456,1.74197 -2.67898,7.24062 -2.27998,9.1991c0.65897,3.23648 -0.21827,1.15568 2.6178,2.84422c2.95842,1.76306 6.40202,1.65621 9.64127,2.19187c1.99915,0.3304 9.32428,3.77778 10.55603,3.23368c2.15347,-0.95183 2.08535,-4.30782 4.44874,-5.63784c3.21978,-1.81367 7.96465,-0.2601 11.0023,1.1585c8.12035,3.78761 13.69935,11.62857 21.55695,15.92091c13.95376,7.62023 30.51143,11.83947 46.07925,13.58003c8.43315,0.94338 17.06371,2.59818 25.39259,0.62283c6.5619,-1.55779 15.09098,-1.41438 18.65831,-8.45535c-31.70147,-8.71827 -80.08712,-19.38658 -92.62145,-55.7668c-6.81353,6.17772 -18.20092,2.85125 -26.43527,1.99784c-9.05875,-0.93776 -17.15408,-0.71984 -25.43847,-4.8491c-0.60614,3.24633 -0.79104,5.94012 -0.63951,9.24128m-280.6803,-225.31841c14.92299,0.90163 29.07053,-6.16051 38.25402,-18.07571c2.26046,-2.93482 4.57842,-5.93059 5.93582,-9.40695c0.29448,-0.88087 0.58755,-1.76311 0.88203,-2.64398c1.42471,-2.43345 0.8007,-3.58162 -1.87063,-3.44451c-1.50464,-2.06365 -5.32023,-2.75754 -4.23487,-6.49844c0.81753,-2.82264 3.83382,-2.86835 6.45607,-3.75613c-1.30552,-2.19385 -2.08659,-3.29493 -3.95582,-5.2464c-4.85747,4.36969 -13.67216,12.94564 -17.08529,2.90712c-1.63926,-4.81843 1.24662,-9.42496 0.53146,-14.07303c-0.29448,-1.92239 -2.73163,-6.83362 -4.14372,-7.98318c-7.5232,-6.12449 -18.35856,-3.58993 -26.34031,0.01524c-5.50111,2.4847 -6.68463,3.65087 -7.58209,9.3474c-0.91148,5.79209 -1.75705,11.58141 -2.76809,17.35689c3.30096,-1.72018 3.90253,-5.43615 6.05502,-8.11198c0.80631,1.4681 1.61262,2.9376 2.42173,4.4057c1.13584,-0.6371 2.19736,-0.60386 3.18176,0.10249c1.59298,2.44869 0.59035,6.08018 0.10096,8.64797c5.31181,-0.49583 7.55685,5.43061 2.20157,7.83082c-5.5474,2.48609 -8.04905,-4.29213 -8.23696,-8.68259c-2.06975,2.47223 -4.1956,1.14955 -5.63854,2.4196c-1.44153,1.27005 -2.00946,3.91679 -2.52269,6.81561c-0.84276,4.76303 -2.99946,11.63543 -1.00402,16.4137c2.963,7.09676 12.41012,10.78919 19.36259,11.66036m432.42608,-227.94768c-4.93769,6.86682 -13.35686,15.85588 -15.11713,24.1523c5.43843,-3.19167 16.93738,-18.54886 19.89999,-6.31547c1.70029,7.02197 -7.02156,15.38904 -9.16401,22.18798c8.57679,-2.82181 14.68612,-11.65988 20.03807,-18.48098c6.82349,-8.69677 13.79065,-20.16133 15.53279,-31.21999c1.40877,-8.94889 -4.7996,-17.28965 -14.02359,-18.16653c-4.71172,-0.44883 -9.63127,0.29922 -14.18398,1.3922c-2.07551,0.49732 -5.17202,1.11515 -7.02435,2.22753c-2.32657,1.39636 -2.64459,4.667 -4.83586,1.94632c-2.911,5.48708 -5.82201,10.97416 -8.73301,16.45986c2.89706,-1.05143 8.80833,-5.5134 11.97459,-5.05211c4.62384,0.67463 5.57372,7.39046 5.63649,10.86889m-462.32998,-134.33078c-12.94547,0.38158 -26.47631,3.13822 -38.73113,7.236c-3.04335,1.01849 -15.88214,4.6407 -13.17849,9.89164c1.78698,3.4707 11.42239,-1.43373 14.33519,-2.25161c12.48363,-3.50577 25.33786,-5.8177 38.12471,-7.92762c3.09669,-0.51064 13.59962,-0.46014 14.14147,-4.51864c0.66398,-4.95213 -11.03636,-2.43538 -14.69175,-2.42977m352.31234,564.82187c-7.01636,0.85697 -13.75382,0.53644 -20.77723,-0.32318c-5.9106,-0.72319 -11.92966,-3.1431 -17.81067,-3.1431c0,6.29547 -0.42682,6.33521 6.21486,7.68225c4.63578,0.94041 9.33778,1.4689 14.02287,2.12454c8.24892,1.15366 17.4064,4.3908 25.75673,2.7272c-0.20284,-1.09273 -0.84236,-8.47034 -1.70725,-9.20016c-0.48739,-0.40928 -4.99077,0.13908 -5.69931,0.13245m-113.40261,-465.78898c1.96184,1.25009 6.47163,6.23472 8.80917,6.3227c-0.83474,-5.77119 -7.27358,-15.81923 -14.66738,-12.25278c-1.81157,0.87454 -5.61776,5.22887 -3.89637,7.14997c0.91945,1.02687 7.35009,-1.21333 9.75458,-1.21989m-68.40917,51.33929c0.07132,-1.00553 0.14411,-2.01106 0.21834,-3.01659c-2.71324,1.59544 -6.07278,2.35026 -8,4.9204c2.31441,1.02564 4.62737,2.05262 6.94323,3.0796c0.27948,-1.66114 0.55895,-3.32227 0.83843,-4.98341m213.6761,153.21891c12.81889,4.48896 24.57104,10.48443 34.00637,20.66201c8.15608,8.80021 11.98967,24.30679 13.98007,35.8423c4.92671,28.54583 -4.57946,55.00476 -10.84792,82.31344c-3.17937,13.8529 -7.92691,27.18372 -12.37164,40.67839c-3.8808,11.78406 -7.2088,24.12489 -12.56609,35.32995c-4.54196,9.50139 -10.34511,18.8681 -14.3412,28.72494c-2.15014,5.304 -5.63509,23.50562 -13.79673,17.78924c-2.22653,5.8233 -2.76823,5.32761 -0.38752,9.37226c1.72372,2.92831 7.56854,6.99379 10.32705,9.37781c7.35048,6.35648 16.6608,11.59384 25.28358,16.04393c15.79408,8.15178 32.72434,14.25 48.98928,21.68116c7.19075,3.28793 14.98847,7.17151 13.37448,16.57849c-1.35148,7.88519 -5.91427,13.86539 -13.0314,17.37408c-6.68099,3.29487 -16.23855,5.83858 -23.58902,6.87161c-4.3614,0.61371 -5.36146,-1.20104 -8.91725,-1.82864c-3.9572,-0.69701 -8.57555,0.6512 -12.65776,0.61649c-18.32619,-0.15968 -34.37167,-4.77083 -49.18096,-15.39828c-5.29201,-3.7975 -13.08279,-14.10004 -20.00824,-14.09865c-3.54051,0 -2.79324,2.15076 -5.90733,3.41289c-3.8433,1.55649 -10.46456,-1.38154 -14.24258,-2.07162c-8.04914,-1.46901 -16.23439,-2.96163 -21.59446,-9.89433c-5.79482,-7.49225 -3.73496,-16.77287 -1.24452,-25.09266c2.80712,-9.37921 7.52965,-18.89448 9.53673,-28.41531c0.48892,-2.31599 0.93895,-6.63278 0.44308,-8.98904c-0.77227,-3.65587 -4.46279,-5.83718 -4.57391,-9.79575c-0.03472,-1.20381 1.689,-2.79223 1.99041,-4.03493c0.66532,-2.72975 0.56254,-5.56226 0.83617,-8.34061c0.48892,-4.9555 1.61954,-9.70411 2.39876,-14.60129c1.77234,-11.14535 5.26701,-21.08689 8.65056,-31.82542c3.28216,-10.42195 6.40597,-18.17802 12.75222,-27.20177c3.28493,-4.67363 14.27453,-21.32432 8.90752,-26.11598c-7.34492,14.42773 -15.93437,25.67999 -27.17537,37.16553c-8.59778,8.78632 -17.00388,20.59675 -27.7643,26.85326c-11.83132,6.87993 -26.2892,10.92736 -39.35393,14.56518c-6.2143,1.72867 -11.37018,5.56505 -18.06923,6.27456c-7.26019,0.76783 -14.64956,-0.13746 -21.75974,-1.75643c-2.00152,-0.45542 -7.77412,-3.53091 -9.58534,-3.33514c-2.66823,0.2902 -6.50598,5.04575 -9.43395,5.91911c-7.12685,2.12576 -11.99383,-1.93555 -17.39973,-5.68862c-5.86705,-4.07381 -7.64216,-5.08601 -14.41205,-5.57615c-8.2922,-0.59982 -16.35661,-3.52258 -24.51269,-5.31233c-14.33982,-3.14631 -26.52811,-9.52222 -39.56229,-16.19666c-14.94124,-7.64915 -27.72123,-18.19884 -38.98307,-30.66048c-16.55524,-18.32103 -39.6109,-69.08814 -12.56748,-86.8635c-15.92048,-2.16187 -30.50198,-9.114 -32.44238,-27.13373c-1.01395,-9.42919 0.8945,-19.87336 3.26549,-28.96237c1.08201,-4.15018 2.37237,-8.27397 3.60857,-12.3811c0.93061,-1.3871 1.4237,-2.90471 1.47509,-4.55423c0.57087,-2.13687 -0.25279,-3.20184 -2.47099,-3.19212c-4.19333,-4.90273 -7.34631,-9.23063 -8.19359,-16.19249c-0.26668,-2.2063 -0.50559,-5.58864 1.06396,-7.46448c0.72644,-0.75395 1.60288,-1.25797 2.62656,-1.51067c2.4571,0.14023 3.15159,-1.07052 2.08347,-3.63089c1.19313,-3.6281 -0.57643,-6.45505 3.9197,-7.96989c1.44175,0.30686 2.87657,0.64287 4.30583,1.00526c1.82373,0.83171 3.00992,0.2291 3.56134,-1.80225c4.23639,-1.65784 2.28209,-4.10852 8.03802,-1.97581c3.48356,1.29129 6.79766,3.51425 9.33394,6.22179c3.18215,-2.04245 -4.05443,-14.66793 -4.29611,-18.69592c-0.57226,-9.49445 3.35299,-17.34493 8.46027,-25.14404c9.92703,-15.15529 23.78348,-28.18759 37.44686,-39.91333c26.17253,-22.45594 53.66736,-43.83441 83.21928,-61.72501c-12.19107,-8.46697 -26.43366,-10.76214 -40.94015,-6.82717c-13.37309,3.6281 -24.21268,10.21645 -36.5232,15.98005c-11.40351,5.33732 -23.50846,7.52974 -27.14481,-7.03545c-4.07388,-16.31467 8.92419,-22.37124 20.58328,-29.68715c-2.9113,-2.17159 -12.49526,-0.61927 -16.12049,-0.3624c-8.07413,0.57067 -15.79547,2.39375 -23.64181,4.00578c-3.76274,0.77199 -7.21991,0.59843 -10.94793,1.35516c-5.54203,1.12467 -11.32851,2.38541 -16.93582,3.98772c-13.33975,3.81555 -26.58088,9.60552 -38.10802,17.40741c-9.96314,6.7397 -16.8747,16.25636 -24.90161,25.02185c-9.15476,9.9943 -17.92616,19.82754 -31.49787,23.48619c-6.35458,1.71339 -13.80923,3.26849 -18.31507,-2.40763c-4.19194,-5.27762 -4.42529,-11.63826 -4.28778,-18.09193c0.3028,-14.25417 7.18935,-29.658 15.19959,-41.30598c8.69501,-12.64353 20.34021,-19.88447 31.3437,-30.06205c-15.90381,1.13717 -31.27425,9.52083 -45.90019,15.31497c-3.07798,1.22048 -6.18513,2.59091 -9.27977,3.71975c-3.30022,1.20381 -5.48647,0.46653 -8.64778,1.01776c-7.21575,1.25935 -13.41337,4.30013 -20.43188,-0.54846c-13.27864,-9.17093 0.025,-27.82797 9.16726,-33.55269c12.73416,-7.97267 25.68916,-14.68598 39.71785,-20.37321c-7.59494,-8.23787 -1.10841,-19.99415 5.89204,-25.83828c8.85752,-7.39506 20.13603,-11.63271 30.80894,-15.59127c8.44083,-3.13103 16.73025,-6.1371 25.49887,-8.02127c9.21727,-1.97998 19.99574,-5.00548 29.34913,-4.71529c8.7714,0.27214 16.54968,-1.27324 25.43358,-1.52039c7.39215,-0.20549 14.80096,-0.02777 22.19172,-0.21938c19.88601,-0.51374 39.84563,0.82754 59.28022,2.25767c-15.39822,-45.0285 86.02918,-31.12284 107.66808,-25.24123c19.66516,5.34566 42.19717,11.54663 58.71491,24.23042c6.99767,5.37204 13.64394,11.47998 19.85267,17.74759c9.16032,9.2473 14.23148,21.35764 19.07624,33.3111c12.28968,-6.02047 24.04044,-12.58105 37.48714,-15.56629c12.79528,-2.83945 25.90168,-6.68832 38.77196,-8.83353c9.78535,-1.63146 23.98766,-2.73809 32.22292,4.17101c8.94363,7.50475 13.60365,19.18328 18.94289,29.18452c25.64055,-24.329 54.23962,-42.07798 90.79615,-40.89777c35.77176,1.15522 59.2955,32.04619 63.63189,65.52113c4.7767,36.88505 -11.65353,75.42795 -33.9258,103.99182c-9.98676,12.81015 -20.32076,25.18153 -33.7633,34.73846c-6.66571,4.7375 -13.69811,9.92765 -21.00691,13.62657c-3.64468,1.84391 -7.62966,3.51009 -11.4563,4.92912c-1.7265,0.64009 -3.50439,1.28295 -5.30034,1.71755c-5.12811,1.24408 -4.13221,-0.41655 -6.03928,4.07242c-1.54732,3.64477 -1.35703,9.91516 -2.01958,13.91538c-0.75699,4.57227 -1.20702,9.20703 -2.31265,13.71682c-1.9154,7.81716 -3.90997,15.44271 -6.30874,23.07659c-4.54196,14.44716 -10.65346,29.00818 -18.14006,42.18628c6.34902,2.75753 15.23987,3.03522 22.02504,3.87109c7.34353,0.9039 14.69678,2.80334 22.32505,4.93605c15.28432,4.27376 28.94215,7.88103 43.47643,14.27916c15.08847,6.64251 28.53656,16.56044 43.06528,24.45397c13.36059,7.25899 26.86563,16.35077 39.27338,25.06489c2.95158,2.07301 4.77947,3.87526 7.12962,6.50088c2.40433,2.68255 3.16965,3.2074 6.04206,5.53172c1.29592,1.04691 5.06283,6.33148 6.54209,6.52587c2.64878,0.35128 2.24181,-1.62592 4.32111,-4.38622c4.34195,-5.76221 10.3979,-10.22618 14.70929,-16.13417c3.59606,-4.92634 7.34631,-9.91516 11.18961,-14.15142c9.30199,-10.25256 17.00944,-21.61591 23.62236,-33.90676c3.44189,-6.39813 7.06574,-12.48801 10.80348,-18.52653c3.72107,-6.01213 10.33678,-13.94731 17.74698,-13.59186c-0.59587,-3.0616 -2.48905,-3.57117 0.77783,-5.44285c2.1043,-1.20659 6.2004,0.73728 7.82273,1.96193c4.29212,3.24349 4.48223,9.5361 4.21138,14.26249c-0.69727,12.18117 -3.24604,24.20543 -6.79905,35.72289c-4.26972,13.84596 -9.62146,26.06183 -15.46211,39.27602c-4.6503,10.52748 -10.42429,24.44841 -21.99587,29.25256c7.77134,11.09537 4.03915,20.13717 -1.15424,31.91706c-3.79608,8.61137 -8.81029,17.51016 -16.4469,23.2085c-8.60889,6.42451 -17.9456,0.97471 -26.94896,-3.27127c-5.43786,-2.56592 -22.06671,-8.61831 -18.68454,-16.51184c-4.15444,-0.554 -6.76711,-3.57118 -10.54791,-4.50007c-4.00304,-0.98305 -3.31549,0.64286 -7.55049,1.25241c-3.24743,0.46653 -8.10469,-2.44095 -11.16183,-3.48232c-5.10728,-1.73699 -10.19927,-3.51841 -15.2996,-5.27484c-14.3551,-4.94439 -28.46851,-9.81241 -42.96528,-13.77376c-26.97258,-7.37006 -54.27851,-11.55078 -81.15664,-18.13219c-5.38785,-1.31906 -10.74514,-2.5923 -16.35523,-3.64894c-1.1584,-0.21799 -7.16852,-0.55261 -7.89912,-1.79253c-1.27925,-2.17298 2.65295,-14.33331 2.99047,-16.81175c2.21542,-16.26747 1.49177,-34.07615 -1.62927,-50.15895c-1.29592,-6.68555 -7.08518,-15.34274 -7.03518,-21.86861c0.03473,-4.37788 3.91415,-9.15843 6.19207,-13.12394c5.6337,-9.80547 11.53686,-20.39959 15.71074,-30.60355c6.3893,-15.60933 10.30344,-33.22918 13.12585,-49.9479c1.46954,-8.71551 3.18076,-18.16414 3.58079,-26.98101c0.30557,-6.72025 -0.24585,-13.76958 0.72921,-20.65229c-3.71969,0.35267 -8.98253,2.27989 -12.33274,0.2166c-4.23083,-2.6034 -5.36702,-10.03595 -4.8267,-14.47493c-14.48566,2.52842 -14.00508,-11.20923 -13.1078,-21.95192c-26.18086,0 7.3477,-38.90391 11.53686,-47.25841c1.92512,-3.84054 1.86818,0.47347 1.01812,-5.46646c-0.37363,-2.61173 -2.15847,-5.50533 -3.16826,-7.90602c-2.20014,-5.24152 -4.57946,-10.40251 -7.1199,-15.48714c-5.36841,-10.73991 -11.44935,-21.11744 -18.0859,-31.12284c-5.97399,4.16267 -11.35906,9.09039 -16.34828,14.37774c3.20021,-8.36978 12.97862,-18.73897 8.79641,-28.24314c-3.87664,-8.80992 -16.82331,-8.19899 -24.46964,-6.58835c-20.77635,4.38067 -40.70264,10.76075 -60.49558,18.14748c6.13095,3.51563 15.51767,0.79976 21.60973,-1.88834c7.54354,-3.32958 15.65518,-6.82301 23.78487,-8.58638c7.09074,-1.53844 16.40245,-1.01359 14.35371,8.53639c-1.66122,7.73802 -9.22977,15.19001 -14.22314,20.97582c-11.0035,12.74766 -24.80022,22.61561 -38.35249,32.47522c-14.56761,10.59968 -28.60463,22.11576 -43.35697,32.4072c-26.667,18.60567 -55.33969,34.77594 -82.89147,52.14309c-14.3176,9.02375 -30.54087,16.28552 -46.06687,22.97384c-17.08027,7.35757 -33.45633,15.23444 -51.17692,21.04524c-9.84092,3.22822 -19.59433,5.88439 -29.2644,9.55693c-6.0615,2.30071 -16.61635,6.91186 -20.62077,0.07914c-8.13386,-13.87789 21.29998,-32.1295 29.36578,-40.61452c5.56425,5.40398 -21.87502,25.54115 -19.72766,33.40968c1.68761,6.18291 8.21442,-1.80086 11.36601,-3.48648c5.09339,-2.7242 11.12572,-4.09325 16.24411,-7.20067c10.49929,-6.37453 22.94732,-13.72516 25.34469,-26.90186c-1.66816,-1.7606 -1.64732,-3.38512 0.06251,-4.87497c0.76116,-0.90529 1.36536,-1.89944 1.80984,-2.98385c0.74727,-2.07022 1.04729,-4.66391 1.44731,-6.8591c1.18202,-6.48977 -1.78483,-12.56577 0.98757,-18.91669c-16.18022,12.2603 -31.734,26.10903 -47.09333,39.38154c-13.77728,11.90485 -28.15321,27.49335 -33.21604,45.2576c-0.64865,2.27573 -1.7265,4.8583 -1.60843,7.26038c0.23057,4.71529 0.70143,3.69892 4.50029,5.21514c3.80024,1.51623 9.33255,1.38571 13.41892,1.54677c2.32932,0.09026 12.73138,-2.37569 10.66319,2.73531c-1.19174,2.94637 -8.40332,2.83529 -10.98543,3.10743c-6.47959,0.68452 -9.9937,-0.01805 -6.92406,7.00628c1.37648,3.1477 4.16416,5.28041 6.3518,7.71719c6.0865,6.77858 9.39227,17.17554 14.18008,25.13988c5.45591,9.07235 11.45213,17.70038 17.82338,26.15069c2.62934,3.48648 6.14345,10.03873 9.78813,12.52689c3.403,2.32293 -0.60143,2.13132 5.05172,1.18715c2.46405,-0.4096 4.69752,-2.0133 7.05462,-2.58674c14.09258,-3.43372 28.57824,-7.30342 43.15279,-11.54107c18.64149,-5.42064 38.20525,-10.0429 55.99112,-17.84895c15.93298,-6.99518 31.74789,-15.32191 47.84755,-22.40595c4.70169,-2.06745 9.39783,-3.43788 13.05223,-7.24372c4.41139,-4.59171 8.06302,-10.60384 12.13134,-15.5399c6.9185,-8.39616 13.2953,-16.93672 20.74301,-24.89411c5.54341,-5.92049 15.36766,-16.927 23.189,-19.2902c14.86068,-4.48896 6.906,18.14609 4.98504,23.86664c3.49328,0.79282 5.32951,-3.68781 9.42978,-2.3993c4.90865,1.54399 5.41702,8.07264 6.03094,12.16311c0.16251,1.08996 -1.31258,3.12686 -0.86394,4.0988c0.15279,0.33185 3.35577,2.22574 3.97387,3.10326c2.2432,3.18935 1.8015,7.06738 0.95145,10.50665c-4.39751,17.81424 -20.02907,30.82294 -31.52565,43.96354c5.14339,-0.97332 8.95613,-3.90441 13.81061,-5.35677c4.55724,-1.36349 9.13809,-1.29267 13.73145,-1.68284c4.80864,-0.4096 9.42838,-2.20907 14.34815,-2.30071c5.16283,-0.09581 10.10621,1.37459 15.22598,1.95776"/>
     <path id="svg_7" d="m77.73656,218.99996c-2.83497,1.85314 -3.6341,3.67119 -3.73198,7.94605c-0.03915,1.75347 0.08176,8.29422 2.53213,8.04713c2.29952,-0.23164 1.19985,-13.74414 1.19985,-15.99318m-14.64476,10.65343c1.321,-13.70152 6.33364,-27.63224 18.12549,-36.1693c2.91619,-2.11134 6.21511,-2.03634 9.4112,-3.36843c1.9208,-0.80009 4.95552,-4.51994 7.13623,-4.07962c8.02737,1.62379 -1.24673,12.29026 -2.60486,15.09612c-4.20862,8.69264 -3.92442,16.33098 -3.79875,25.70842c0.09568,7.12718 1.57663,19.1424 -2.01648,25.59312c-3.83018,6.86882 -12.13745,2.4086 -16.7745,-1.65713c-5.85237,-5.13252 -10.27235,-13.30565 -9.47833,-21.12318"/>
     <path id="svg_8" d="m204.00958,270.14167c0,7.64558 6.20567,2.46942 5.98399,-2.96849c-0.32445,-8.00657 -6.27321,-3.07635 -5.98399,2.96849m32.98979,-42.26586c-6.79187,6.10826 -12.03055,9.53529 -13.33952,18.92727c-0.9908,7.11425 -0.00558,14.16031 0.03628,21.32604c0.07117,12.012 -9.6289,24.64038 -20.06719,10.87104c-7.61381,-10.04315 -4.88283,-25.83558 1.32572,-35.92883c3.25848,-5.29568 7.90966,-10.53432 13.2823,-13.83473c4.04135,-2.48365 15.40904,-7.37027 18.76241,-1.36079"/>
     <path id="svg_9" d="m142.1514,412.99996c-0.78768,1.86313 -2.6359,9.46899 1.13519,7.7486c3.32964,-1.51996 1.17252,-6.56118 -1.13519,-7.7486m-19.92758,-23.4825c-0.58222,-2.86026 -0.34497,-20.79009 4.59369,-19.44563c3.87921,1.05429 4.52006,10.23199 6.10038,13.42664c5.88494,11.89427 19.39194,19.30193 24.04971,31.57895c5.19909,13.70991 -10.51953,14.13549 -18.86017,8.58354c-9.87595,-6.57445 -15.59045,-22.67068 -15.88361,-34.1435"/>
     <path id="svg_10" d="m110.11658,315.99996c2.14342,-2.89384 2.36015,-4.43995 1.13832,-7c-1.56183,1.69883 -1.28446,4.12663 -1.13832,7m1.55094,12.9454c-11.17346,1.251 -11.73281,-19.34085 -9.81911,-26.41066c1.52366,-5.63022 4.79985,-11.68081 8.17221,-16.26877c0.68124,-0.92566 7.14153,-9.24503 8.40786,-9.26518c4.85944,-0.0763 3.52404,5.41428 2.9999,7.4585c-1.65096,6.43927 -2.30512,11.82189 -1.86089,18.96224c0.47674,7.63988 4.09423,25.77724 -7.89997,25.52387"/>
     <path id="svg_11" d="m619,150.61802c-15.97704,13.39884 -31.14531,27.90484 -48.51778,39.62503c-8.50116,5.73548 -17.38785,10.80996 -25.87085,16.63908c-4.32042,2.96895 -8.72884,5.62668 -13.52139,7.80933c-4.23382,1.92789 -7.00235,2.17852 -3.4893,-2.39747c2.34808,-3.05708 7.61137,-5.1874 10.81013,-7.36041c4.92246,-3.34627 9.57113,-7.05883 14.74921,-10.02778c9.12834,-5.23698 18.20081,-9.46457 26.61536,-15.8872c7.4689,-5.69829 15.17386,-11.26301 22.30192,-17.31934c3.05629,-2.59714 13.19175,-14.52115 16.9227,-11.08124"/>
     <path id="svg_12" d="m619.32311,199c7.18483,6.14644 -10.79217,22.98413 -14.89236,26.80029c-4.32284,4.02454 -9.08421,7.61462 -13.78585,11.18018c-1.65501,1.25571 -10.68492,9.65889 -12.97667,8.98065c-4.52243,-1.33879 1.41469,-6.79064 2.95837,-8.21251c4.99354,-4.60337 10.09297,-9.0719 14.97518,-13.7992c4.40295,-4.26015 9.17111,-8.2057 13.42878,-12.60341c3.44986,-3.56284 6.34714,-9.60032 10.29255,-12.346"/>
     <path id="svg_13" d="m86.99937,446.75642c-1.87601,-4.34774 -5.23579,0.47877 -3.53251,2.64929c1.61092,2.05551 3.29261,-1.81479 3.53251,-2.64929m-11,-8.58451c1.00569,-6.39182 3.32996,-9.94431 9.32641,-4.48827c4.12055,3.74978 12.40774,14.40993 11.62134,20.22188c-1.03223,7.62353 -9.42837,5.46004 -13.78079,1.47432c-4.46136,-4.0857 -6.43085,-11.53994 -7.16696,-17.20793"/>
     <path id="svg_14" d="m89.13988,563.97492c-7.34577,-0.55923 -13.61274,-6.19862 -16.73233,-12.80811c-2.62467,-5.55808 -5.10894,-14.5172 4.11218,-11.5955c6.00979,1.90452 29.1773,25.29952 12.62015,24.40361"/>
     <path id="svg_15" d="m178.16366,527.74045c-5.67639,1.29227 -11.29207,-2.44658 -14.7829,-6.66264c-2.17176,-2.62536 -7.22725,-11.83031 -4.68019,-15.61984c3.55016,-5.28451 8.91058,5.338 10.75948,7.4411c2.90028,3.29261 12.38346,9.59066 8.70361,14.84138"/>
     <path id="svg_16" d="m183.27661,384c-4.44955,-2.06479 -8.58099,-4.55071 -10.37021,-9.48302c-1.13822,-3.14148 -2.09391,-12.56044 2.95966,-12.51698c5.84549,0.05194 19.23173,21.05688 7.41055,22"/>
     <path id="svg_17" d="m152.07901,286.00257c5.9582,-0.10766 7.3688,3.17824 8.19742,7.89968c0.56243,3.20408 3.2919,14.08103 0.45716,16.30896c-4.04983,3.18399 -10.49227,-4.11133 -11.7946,-6.9752c-2.68435,-5.89569 1.02712,-11.6952 3.14002,-17.23344"/>
     <path id="svg_18" d="m254.45795,612.13801c2.90111,1.32002 9.50117,4.24731 6.97897,8.78907c-2.6366,4.75004 -10.20751,0.13359 -13.0357,-1.94195c-1.1839,-0.869 -8.70619,-6.55697 -8.39163,-8.46446c0.66343,-4.0534 11.03251,1.23671 14.44836,1.61734"/>
     <path id="svg_19" d="m63.32643,315.50757c1.98242,4.96475 4.21391,22.01855 -6.2253,12.80936c-3.18578,-2.81073 -3.66654,-6.32103 -2.56889,-10.17974c1.58709,-5.59243 3.89678,-4.48363 8.79419,-2.62962"/>
     <path id="svg_20" d="m616.53757,252c-2.31187,-4.72278 3.39582,-7.76908 6.44526,-10.81271c1.9913,-1.98847 10.36402,-12.77171 13.1092,-12.16245c5.64656,1.25333 -16.77804,20.86886 -19.55446,22.97516"/>
     <path id="svg_21" d="m152.00394,594.08553c5.44701,-0.87398 6.71771,5.17664 10.22719,7.8138c1.50484,1.13148 6.67115,2.12596 5.63186,4.52718c-2.73035,6.30686 -16.12606,-8.10047 -15.85905,-12.34098"/>
     <path id="svg_22" d="m198,451.19242c3.74379,-1.56768 14.55001,6.85106 11.44739,10.48806c-4.63812,5.44083 -11.18322,-7.51149 -11.44739,-10.48806"/>
     <path id="svg_23" d="m276.91711,572.98573c-2.72908,0.27102 -14.24594,-3.34918 -9.97903,-8.19618c2.99567,-3.40417 10.95841,5.1141 9.97903,8.19618"/>
     <path id="svg_24" d="m139,549.72838c-2.70945,1.08303 -12.48129,-1.14536 -9.40887,-5.38945c2.92669,-4.03996 9.41292,2.03525 9.40887,5.38945"/>
     <path id="svg_25" d="m219,568.03655c3.1676,-0.32861 5.45595,1.58149 6,4.81579c-3.96175,0.56492 -5.18393,-0.37755 -6,-4.81579"/>
     <path id="svg_26" d="m631,98.4905c1.33841,0.006 2.67429,0.013 4,0.019c-1.33968,-0.007 -2.66921,-0.013 -4,-0.019"/>
     <path id="svg_27" d="m610,376.996c-2.00054,0.002 -4.00108,0.006 -6,0.008c2.00054,-0.004 4.00108,-0.006 6,-0.008"/>
     <path id="svg_28" d="m337.139,51c-0.092,2.0023 -0.184,4.00461 -0.278,6c0.09,-2.00403 0.184,-4.00288 0.278,-6"/>
     <path id="svg_29" d="m956.80559,391c0.63856,2.22499 -0.29579,2.59351 -2.80559,1.10557c0.93435,-0.36852 1.86997,-0.73705 2.80559,-1.10557"/>
     <path id="svg_30" d="m900,565.4905c1.00372,0.006 2.00743,0.013 3,0.019c-1.00651,-0.006 -2.00325,-0.013 -3,-0.019"/>
     <path id="svg_31" d="m710,404.52504c-1.67703,1.278 -3.34518,1.458 -5,-0.068c1.66667,0.024 3.33333,0.046 5,0.068"/>
     <path id="svg_32" d="m672.5645,234c-0.042,1.66945 -0.085,3.33723 -0.129,5c0.042,-1.67112 0.086,-3.33556 0.129,-5"/>
     <path id="svg_33" d="m759,79.69969c-1.66667,-0.001 -3.33484,-0.003 -5,-0.005c1.66818,-0.624 3.33484,-0.419 5,0.005"/>
     <path id="svg_34" d="m270,59.353c-1.66619,0.098 -3.33381,0.196 -5,0.294c1.66619,-0.098 3.33381,-0.196 5,-0.294"/>
     <path id="svg_35" d="m311,59.67c-1.33333,-0.113 -2.66784,-0.227 -4,-0.34c1.33216,0.113 2.66549,0.227 4,0.34"/>
     <path id="svg_36" d="m333,61.25483c-1.33285,0.497 -2.6657,0.791 -4,0.007c1.3343,-0.002 2.66715,-0.005 4,-0.007"/>
     <path id="svg_37" d="m214,63.993c-1.66781,0.339 -3.3339,0.678 -5,1.014c1.66781,-0.336 3.3339,-0.675 5,-1.014"/>
     <path id="svg_38" d="m673.568,471c-0.046,1.00201 -0.092,2.00281 -0.136,3c0.047,-1.00322 0.091,-2.00161 0.136,-3"/>
     <path id="svg_39" d="m122.4715,390c0.02,0.66816 0.039,1.33631 0.057,2c-0.021,-0.66994 -0.038,-1.33452 -0.057,-2"/>
     <path id="svg_40" d="m963,386.4121l-5,0.026c1.66255,-1.242 3.33039,-1.084 5,-0.026"/>
     <path id="svg_41" d="m621,379.33c-1.33471,-0.22 -2.66805,-0.44 -4,-0.66c1.33195,0.22 2.66667,0.44 4,0.66"/>
     <path id="svg_42" d="m255,611.9875c-1.66724,-0.324 -3.33276,-0.651 -5,-0.975l5,0.975z"/>
     <path id="svg_43" d="m591.546,325c-0.031,-1.00122 -0.062,-2.00243 -0.092,-3c0.03,1.00122 0.061,2.00122 0.092,3"/>
     <path id="svg_44" d="m275,59.6845c-1.00035,-0.123 -2.00069,-0.246 -3,-0.369c0.99931,0.123 1.99965,0.246 3,0.369"/>
     <path id="svg_45" d="m439,34.9545c-1,-0.303 -2.00101,-0.606 -3,-0.909c1,0.303 2,0.606 3,0.909"/>
     <path id="svg_46" d="m558,709.439c0.66883,0.041 1.33875,0.082 2,0.122c-0.67208,-0.041 -1.33658,-0.082 -2,-0.122"/>
     <path id="svg_47" d="m99,172.46c1.00392,0.026 2.00785,0.053 3,0.08c-1.00897,-0.027 -2.00448,-0.054 -3,-0.08"/>
     <path id="svg_48" d="m770,80.676c-1.66667,-0.117 -3.33333,-0.234 -5,-0.352c1.6684,0.118 3.33333,0.235 5,0.352"/>
     <path id="svg_49" d="m243,75.994c-2.33898,0.004 -4.67488,0.008 -7,0.012c2.34361,-0.004 4.6718,-0.008 7,-0.012"/>
     <path id="svg_50" d="m715.452,282c0.03,1.66897 0.063,3.33795 0.096,5c-0.03,-1.67013 -0.06,-3.33564 -0.096,-5"/>
     <path id="svg_51" d="m593,640.032c-1.33797,-0.02 -2.67341,-0.042 -4,-0.064c1.3405,0.018 2.66962,0.042 4,0.064"/>
     <path id="svg_52" d="m735,110.19381c1.99953,-0.222 3.99907,-0.444 6,-0.666c-1.91983,1.698 -3.99347,0.568 -6,0.666"/>
     <path id="svg_53" d="m582,640.5555c-1.00326,-0.038 -2.00543,-0.075 -3,-0.111c1.00652,0.038 2.00326,0.074 3,0.111"/>
     <path id="svg_54" d="m547.424,658c0.05,1.66967 0.101,3.33785 0.152,5c-0.049,-1.67268 -0.101,-3.33634 -0.152,-5"/>
     <path id="svg_55" d="m700,171.59754c1.33375,-0.124 2.66749,-0.248 4,-0.371c-1.21744,0.938 -2.64646,0.389 -4,0.371"/>
     <path id="svg_56" d="m263,437.633c1.33333,0.246 2.66805,0.49 4,0.734c-1.33333,-0.244 -2.66667,-0.488 -4,-0.734"/>
     <path id="svg_57" d="m471,174.50421c1.66376,-1.418 3.33101,-1.264 5,-0.016c-1.66725,0.004 -3.33275,0.01 -5,0.016"/>
     <path id="svg_58" d="m408.427,225c0.048,-0.66696 0.095,-1.33392 0.146,-2c-0.046,0.66785 -0.096,1.33392 -0.146,2"/>
     <path id="svg_59" d="m699.479,206c0.014,1.33551 0.027,2.67101 0.042,4c-0.013,-1.33876 -0.027,-2.66938 -0.042,-4"/>
     <path id="svg_60" d="m258.28421,415.03113c2.19426,0.74435 6.60714,2.99093 9.16378,2.69319c2.04674,-0.23954 3.73398,-2.72702 5.70767,-2.72432c5.31522,0.00677 4.32981,6.15104 1.76171,9.44919c-6.94516,8.92137 -22.46401,-0.75247 -16.63316,-9.41806"/>
     <path id="svg_61" d="m279.97708,383c7.24823,1.87086 3.63831,17.81407 -2.45487,18.91002c-7.17444,1.29151 -8.42458,-11.67173 -7.007,-16.35765c3.69223,2.19338 1.40623,10.01977 6.05912,7.85705c2.9586,-1.37761 2.50878,-7.74322 3.40275,-10.40942"/>
    </g>
   </g>
  </g>
 </g>
</svg>